ISO-10303-21;
HEADER;
FILE_DESCRIPTION((''),'2;1');
FILE_NAME('10-855','2012-03-02T',('jfgibert'),(''),
'PRO/ENGINEER BY PARAMETRIC TECHNOLOGY CORPORATION, 2011250',
'PRO/ENGINEER BY PARAMETRIC TECHNOLOGY CORPORATION, 2011250','');
FILE_SCHEMA(('CONFIG_CONTROL_DESIGN'));
ENDSEC;
DATA;
#1=CARTESIAN_POINT('',(0.E0,0.E0,0.E0));
#2=DIRECTION('',(0.E0,0.E0,-1.E0));
#3=DIRECTION('',(1.E0,1.594319713039E-8,0.E0));
#4=AXIS2_PLACEMENT_3D('',#1,#2,#3);
#6=CARTESIAN_POINT('',(0.E0,0.E0,0.E0));
#7=DIRECTION('',(0.E0,0.E0,-1.E0));
#8=DIRECTION('',(4.999999780226E-1,8.660254164731E-1,0.E0));
#9=AXIS2_PLACEMENT_3D('',#6,#7,#8);
#11=CARTESIAN_POINT('',(0.E0,0.E0,0.E0));
#12=DIRECTION('',(0.E0,0.E0,-1.E0));
#13=DIRECTION('',(-1.E0,-1.594319709685E-8,0.E0));
#14=AXIS2_PLACEMENT_3D('',#11,#12,#13);
#16=CARTESIAN_POINT('',(0.E0,0.E0,0.E0));
#17=DIRECTION('',(0.E0,0.E0,-1.E0));
#18=DIRECTION('',(-4.999999999682E-1,-8.660254038028E-1,0.E0));
#19=AXIS2_PLACEMENT_3D('',#16,#17,#18);
#21=CARTESIAN_POINT('',(0.E0,0.E0,1.844736129186E-6));
#22=DIRECTION('',(0.E0,0.E0,1.E0));
#23=DIRECTION('',(1.E0,0.E0,0.E0));
#24=AXIS2_PLACEMENT_3D('',#21,#22,#23);
#26=CARTESIAN_POINT('',(-1.065814103640E-14,0.E0,1.844736127410E-6));
#27=DIRECTION('',(0.E0,0.E0,1.E0));
#28=DIRECTION('',(-1.E0,0.E0,0.E0));
#29=AXIS2_PLACEMENT_3D('',#26,#27,#28);
#31=CARTESIAN_POINT('',(0.E0,0.E0,0.E0));
#32=DIRECTION('',(0.E0,0.E0,-1.E0));
#33=DIRECTION('',(-5.000000192623E-1,8.660253926634E-1,0.E0));
#34=AXIS2_PLACEMENT_3D('',#31,#32,#33);
#36=CARTESIAN_POINT('',(0.E0,0.E0,0.E0));
#37=DIRECTION('',(0.E0,0.E0,-1.E0));
#38=DIRECTION('',(5.000000000247E-1,-8.660254037702E-1,0.E0));
#39=AXIS2_PLACEMENT_3D('',#36,#37,#38);
#41=CARTESIAN_POINT('',(-1.1E1,-6.350852961086E0,4.879563211012E-1));
#42=CARTESIAN_POINT('',(-1.1E1,-5.911577799475E0,4.249762582660E-1));
#43=CARTESIAN_POINT('',(-1.100000000003E1,-5.042949399971E0,3.103358682501E-1));
#44=CARTESIAN_POINT('',(-1.099999999990E1,-3.782739372696E0,1.755060880485E-1));
#45=CARTESIAN_POINT('',(-1.100000000036E1,-2.525303722250E0,7.565803070090E-2));
#46=CARTESIAN_POINT('',(-1.099999999867E1,-1.264750392292E0,1.397318326785E-2));
#47=CARTESIAN_POINT('',(-1.100000000287E1,-4.219672975697E-1,
1.694229756631E-9));
#48=CARTESIAN_POINT('',(-1.100000000287E1,-1.436875366712E-7,
-7.336327857657E-10));
#50=CARTESIAN_POINT('',(-1.100000000287E1,-1.436875366712E-7,
-7.336327857657E-10));
#51=CARTESIAN_POINT('',(-1.100000000287E1,4.220521744397E-1,
-7.336328190186E-10));
#52=CARTESIAN_POINT('',(-1.099999999867E1,1.264991257613E0,1.397925138587E-2));
#53=CARTESIAN_POINT('',(-1.100000000036E1,2.525720911329E0,7.568222508662E-2));
#54=CARTESIAN_POINT('',(-1.099999999990E1,3.783320410494E0,1.755630243101E-1));
#55=CARTESIAN_POINT('',(-1.100000000003E1,5.042949189018E0,3.103395752701E-1));
#56=CARTESIAN_POINT('',(-1.1E1,5.911564197346E0,4.249743080922E-1));
#57=CARTESIAN_POINT('',(-1.1E1,6.350852961086E0,4.879563211012E-1));
#59=DIRECTION('',(0.E0,0.E0,1.E0));
#60=VECTOR('',#59,2.918546771485E0);
#61=CARTESIAN_POINT('',(-1.1E1,6.350852961086E0,4.879563211012E-1));
#62=LINE('',#61,#60);
#63=CARTESIAN_POINT('',(-1.1E1,1.196060760211E0,4.E0));
#64=CARTESIAN_POINT('',(-1.1E1,1.625016483491E0,3.983187795324E0));
#65=CARTESIAN_POINT('',(-1.1E1,2.481179262419E0,3.931692824867E0));
#66=CARTESIAN_POINT('',(-1.1E1,3.758057158411E0,3.804715589606E0));
#67=CARTESIAN_POINT('',(-1.1E1,5.034570435467E0,3.632508308030E0));
#68=CARTESIAN_POINT('',(-1.1E1,5.909381254343E0,3.486537504773E0));
#69=CARTESIAN_POINT('',(-1.1E1,6.350852961086E0,3.406503092586E0));
#71=CARTESIAN_POINT('',(-1.1E1,-6.350852961086E0,3.406503092586E0));
#72=CARTESIAN_POINT('',(-1.1E1,-5.909325785407E0,3.486547560737E0));
#73=CARTESIAN_POINT('',(-1.1E1,-5.034431041979E0,3.632530815718E0));
#74=CARTESIAN_POINT('',(-1.1E1,-3.757826704390E0,3.804742793065E0));
#75=CARTESIAN_POINT('',(-1.1E1,-2.481034691945E0,3.931702839748E0));
#76=CARTESIAN_POINT('',(-1.1E1,-1.624958429891E0,3.983190070638E0));
#77=CARTESIAN_POINT('',(-1.1E1,-1.196060760211E0,4.E0));
#79=CARTESIAN_POINT('',(-1.1E1,6.350852961086E0,4.879563211012E-1));
#80=CARTESIAN_POINT('',(-1.061952408106E1,6.570520835304E0,4.249675717697E-1));
#81=CARTESIAN_POINT('',(-9.867201279721E0,7.004874607221E0,3.103146077537E-1));
#82=CARTESIAN_POINT('',(-8.775377308907E0,7.635239470479E0,1.754452559046E-1));
#83=CARTESIAN_POINT('',(-7.686975489211E0,8.263628554797E0,7.566343213677E-2));
#84=CARTESIAN_POINT('',(-6.595385360463E0,8.893858406751E0,1.397549044550E-2));
#85=CARTESIAN_POINT('',(-5.865487978006E0,9.315264863771E0,3.265970304098E-9));
#86=CARTESIAN_POINT('',(-5.500000268090E0,9.526279291476E0,
-9.913654906485E-10));
#88=CARTESIAN_POINT('',(-5.500000268090E0,9.526279291476E0,
-9.913654906485E-10));
#89=CARTESIAN_POINT('',(-5.134377694716E0,9.737371582635E0,-4.885060047969E-9));
#90=CARTESIAN_POINT('',(-4.404192910048E0,1.015894395784E1,1.398693768715E-2));
#91=CARTESIAN_POINT('',(-3.312352529320E0,1.078931829829E1,7.571221759818E-2));
#92=CARTESIAN_POINT('',(-2.223181729313E0,1.141815135214E1,1.755757793673E-1));
#93=CARTESIAN_POINT('',(-1.128769888992E0,1.205001032295E1,3.108707626348E-1));
#94=CARTESIAN_POINT('',(-3.787581012667E-1,1.248302983045E1,4.252519608235E-1));
#95=CARTESIAN_POINT('',(0.E0,1.270170592217E1,4.879563211012E-1));
#97=DIRECTION('',(0.E0,0.E0,1.E0));
#98=VECTOR('',#97,2.918546771485E0);
#99=CARTESIAN_POINT('',(0.E0,1.270170592217E1,4.879563211012E-1));
#100=LINE('',#99,#98);
#101=CARTESIAN_POINT('',(-4.464180997188E0,1.012430982173E1,4.E0));
#102=CARTESIAN_POINT('',(-4.092837415852E0,1.033870513838E1,3.983194265751E0));
#103=CARTESIAN_POINT('',(-3.351452185880E0,1.076674410048E1,3.931709885003E0));
#104=CARTESIAN_POINT('',(-2.245525029328E0,1.140525144202E1,3.804744699083E0));
#105=CARTESIAN_POINT('',(-1.138468556765E0,1.204441079446E1,3.632258797105E0));
#106=CARTESIAN_POINT('',(-3.816873596266E-1,1.248133862235E1,3.486403874618E0));
#107=CARTESIAN_POINT('',(0.E0,1.270170592217E1,3.406503092586E0));
#109=CARTESIAN_POINT('',(-1.1E1,6.350852961086E0,3.406503092586E0));
#110=CARTESIAN_POINT('',(-1.061762624940E1,6.571616548925E0,3.486547560737E0));
#111=CARTESIAN_POINT('',(-9.859945175955E0,7.009063920639E0,3.632530815718E0));
#112=CARTESIAN_POINT('',(-8.754373389021E0,7.647366089434E0,3.804742793065E0));
#113=CARTESIAN_POINT('',(-7.648639070895E0,8.285762095656E0,3.931702839748E0));
#114=CARTESIAN_POINT('',(-6.907255280379E0,8.713800226683E0,3.983190070638E0));
#115=CARTESIAN_POINT('',(-6.535819002812E0,8.928249061523E0,4.E0));
#117=CARTESIAN_POINT('',(0.E0,1.270170592217E1,4.879563211012E-1));
#118=CARTESIAN_POINT('',(3.784253619400E-1,1.248322193759E1,4.253070466595E-1));
#119=CARTESIAN_POINT('',(1.127958530438E0,1.205047876104E1,3.109851717314E-1));
#120=CARTESIAN_POINT('',(2.222538659253E0,1.141852262879E1,1.756431383669E-1));
#121=CARTESIAN_POINT('',(3.311812496349E0,1.078963008656E1,7.575108658316E-2));
#122=CARTESIAN_POINT('',(4.403868259918E0,1.015913139438E1,1.399588038051E-2));
#123=CARTESIAN_POINT('',(5.134258356260E0,9.737440483378E0,-1.132700101437E-9));
#124=CARTESIAN_POINT('',(5.499999969413E0,9.526279464570E0,-1.112554303621E-9));
#126=CARTESIAN_POINT('',(5.499999969413E0,9.526279464570E0,-1.112554303621E-9));
#127=CARTESIAN_POINT('',(5.865733583432E0,9.315123064065E0,3.235540840805E-9));
#128=CARTESIAN_POINT('',(6.596063326571E0,8.893466982533E0,1.399417748961E-2));
#129=CARTESIAN_POINT('',(7.688168579532E0,8.262939723861E0,7.574680919118E-2));
#130=CARTESIAN_POINT('',(8.776819980081E0,7.634406543866E0,1.756037415638E-1));
#131=CARTESIAN_POINT('',(9.868009000729E0,7.004408269286E0,3.104342197396E-1));
#132=CARTESIAN_POINT('',(1.061983404196E1,6.570341879297E0,4.250188865789E-1));
#133=CARTESIAN_POINT('',(1.1E1,6.350852961086E0,4.879563211012E-1));
#135=DIRECTION('',(0.E0,0.E0,1.E0));
#136=VECTOR('',#135,2.918546771485E0);
#137=CARTESIAN_POINT('',(1.1E1,6.350852961086E0,4.879563211012E-1));
#138=LINE('',#137,#136);
#139=CARTESIAN_POINT('',(6.535819002812E0,8.928249061523E0,4.E0));
#140=CARTESIAN_POINT('',(6.907305556271E0,8.713771199883E0,3.983187795324E0));
#141=CARTESIAN_POINT('',(7.648764272598E0,8.285689810419E0,3.931692824867E0));
#142=CARTESIAN_POINT('',(8.754572968058E0,7.647250862423E0,3.804715589606E0));
#143=CARTESIAN_POINT('',(9.860065894257E0,7.008994223895E0,3.632508308030E0));
#144=CARTESIAN_POINT('',(1.061767428691E1,6.571588814457E0,3.486537504773E0));
#145=CARTESIAN_POINT('',(1.1E1,6.350852961086E0,3.406503092586E0));
#147=CARTESIAN_POINT('',(0.E0,1.270170592217E1,3.406503092586E0));
#148=CARTESIAN_POINT('',(3.817380153004E-1,1.248130937628E1,3.486414478658E0));
#149=CARTESIAN_POINT('',(1.138594559227E0,1.204433804690E1,3.632282003370E0));
#150=CARTESIAN_POINT('',(2.245703325677E0,1.140514850257E1,3.804768856990E0));
#151=CARTESIAN_POINT('',(3.351566499776E0,1.076667810132E1,3.931719108035E0));
#152=CARTESIAN_POINT('',(4.092882792500E0,1.033867894016E1,3.983196319342E0));
#153=CARTESIAN_POINT('',(4.464180997188E0,1.012430982173E1,4.E0));
#155=CARTESIAN_POINT('',(1.1E1,6.350852961086E0,4.879563211012E-1));
#156=CARTESIAN_POINT('',(1.1E1,5.911577799475E0,4.249762582660E-1));
#157=CARTESIAN_POINT('',(1.100000000003E1,5.042949399971E0,3.103358682500E-1));
#158=CARTESIAN_POINT('',(1.099999999990E1,3.782739372696E0,1.755060880485E-1));
#159=CARTESIAN_POINT('',(1.100000000036E1,2.525303722250E0,7.565803070090E-2));
#160=CARTESIAN_POINT('',(1.099999999867E1,1.264750392292E0,1.397318326785E-2));
#161=CARTESIAN_POINT('',(1.100000000287E1,4.219672975697E-1,1.694229695609E-9));
#162=CARTESIAN_POINT('',(1.100000000287E1,1.436875372001E-7,
-7.336327802954E-10));
#164=CARTESIAN_POINT('',(1.100000000287E1,1.436875372001E-7,
-7.336327802954E-10));
#165=CARTESIAN_POINT('',(1.100000000287E1,-4.220521744397E-1,
-7.336327470425E-10));
#166=CARTESIAN_POINT('',(1.099999999867E1,-1.264991257613E0,1.397925138587E-2));
#167=CARTESIAN_POINT('',(1.100000000036E1,-2.525720911329E0,7.568222508662E-2));
#168=CARTESIAN_POINT('',(1.099999999990E1,-3.783320410494E0,1.755630243101E-1));
#169=CARTESIAN_POINT('',(1.100000000003E1,-5.042949189018E0,3.103395752701E-1));
#170=CARTESIAN_POINT('',(1.1E1,-5.911564197346E0,4.249743080922E-1));
#171=CARTESIAN_POINT('',(1.1E1,-6.350852961086E0,4.879563211012E-1));
#173=DIRECTION('',(0.E0,0.E0,1.E0));
#174=VECTOR('',#173,2.918546771485E0);
#175=CARTESIAN_POINT('',(1.1E1,-6.350852961086E0,4.879563211012E-1));
#176=LINE('',#175,#174);
#177=CARTESIAN_POINT('',(1.1E1,-1.196060760211E0,4.E0));
#178=CARTESIAN_POINT('',(1.1E1,-1.625016483491E0,3.983187795324E0));
#179=CARTESIAN_POINT('',(1.1E1,-2.481179262419E0,3.931692824867E0));
#180=CARTESIAN_POINT('',(1.1E1,-3.758057158411E0,3.804715589606E0));
#181=CARTESIAN_POINT('',(1.1E1,-5.034570435467E0,3.632508308030E0));
#182=CARTESIAN_POINT('',(1.1E1,-5.909381254343E0,3.486537504773E0));
#183=CARTESIAN_POINT('',(1.1E1,-6.350852961086E0,3.406503092586E0));
#185=CARTESIAN_POINT('',(1.1E1,6.350852961086E0,3.406503092586E0));
#186=CARTESIAN_POINT('',(1.1E1,5.909325785407E0,3.486547560737E0));
#187=CARTESIAN_POINT('',(1.1E1,5.034431041979E0,3.632530815718E0));
#188=CARTESIAN_POINT('',(1.1E1,3.757826704390E0,3.804742793065E0));
#189=CARTESIAN_POINT('',(1.1E1,2.481034691945E0,3.931702839748E0));
#190=CARTESIAN_POINT('',(1.1E1,1.624958429891E0,3.983190070638E0));
#191=CARTESIAN_POINT('',(1.1E1,1.196060760211E0,4.E0));
#193=CARTESIAN_POINT('',(1.1E1,-6.350852961086E0,3.406503092586E0));
#194=CARTESIAN_POINT('',(1.061762624940E1,-6.571616548925E0,3.486547560737E0));
#195=CARTESIAN_POINT('',(9.859945175955E0,-7.009063920639E0,3.632530815718E0));
#196=CARTESIAN_POINT('',(8.754373389021E0,-7.647366089434E0,3.804742793065E0));
#197=CARTESIAN_POINT('',(7.648639070895E0,-8.285762095656E0,3.931702839748E0));
#198=CARTESIAN_POINT('',(6.907255280379E0,-8.713800226683E0,3.983190070638E0));
#199=CARTESIAN_POINT('',(6.535819002812E0,-8.928249061523E0,4.E0));
#201=CARTESIAN_POINT('',(1.1E1,-6.350852961086E0,4.879563211012E-1));
#202=CARTESIAN_POINT('',(1.061952405535E1,-6.570520850148E0,4.249675675133E-1));
#203=CARTESIAN_POINT('',(9.867201203425E0,-7.004874651226E0,3.103145964363E-1));
#204=CARTESIAN_POINT('',(8.775377157905E0,-7.635239557815E0,1.754452388239E-1));
#205=CARTESIAN_POINT('',(7.686975268400E0,-8.263628681707E0,7.566341475057E-2));
#206=CARTESIAN_POINT('',(6.595385048547E0,-8.893858588981E0,1.397547736290E-2));
#207=CARTESIAN_POINT('',(5.865487652863E0,-9.315265046869E0,
1.144932858798E-11));
#208=CARTESIAN_POINT('',(5.500000000852E0,-9.526279441143E0,
-2.047778186542E-12));
#210=CARTESIAN_POINT('',(5.500000000852E0,-9.526279441143E0,
-2.047778186542E-12));
#211=CARTESIAN_POINT('',(5.134377465839E0,-9.737371710154E0,
-9.688633775342E-12));
#212=CARTESIAN_POINT('',(4.404192827435E0,-1.015894400769E1,1.398694138106E-2));
#213=CARTESIAN_POINT('',(3.312352427390E0,-1.078931835657E1,7.571222512960E-2));
#214=CARTESIAN_POINT('',(2.223181671355E0,-1.141815138576E1,1.755757861722E-1));
#215=CARTESIAN_POINT('',(1.128769856772E0,-1.205001034151E1,3.108707673092E-1));
#216=CARTESIAN_POINT('',(3.787580906992E-1,-1.248302983655E1,
4.252519625730E-1));
#217=CARTESIAN_POINT('',(0.E0,-1.270170592217E1,4.879563211012E-1));
#219=DIRECTION('',(0.E0,0.E0,1.E0));
#220=VECTOR('',#219,2.918546771485E0);
#221=CARTESIAN_POINT('',(0.E0,-1.270170592217E1,4.879563211012E-1));
#222=LINE('',#221,#220);
#223=CARTESIAN_POINT('',(4.464180997188E0,-1.012430982173E1,4.E0));
#224=CARTESIAN_POINT('',(4.092837415852E0,-1.033870513838E1,3.983194265751E0));
#225=CARTESIAN_POINT('',(3.351452185881E0,-1.076674410048E1,3.931709885003E0));
#226=CARTESIAN_POINT('',(2.245525029328E0,-1.140525144202E1,3.804744699083E0));
#227=CARTESIAN_POINT('',(1.138468556765E0,-1.204441079446E1,3.632258797105E0));
#228=CARTESIAN_POINT('',(3.816873596266E-1,-1.248133862235E1,3.486403874618E0));
#229=CARTESIAN_POINT('',(0.E0,-1.270170592217E1,3.406503092586E0));
#231=DIRECTION('',(8.660254037844E-1,-5.E-1,0.E0));
#232=VECTOR('',#231,2.392121520422E0);
#233=CARTESIAN_POINT('',(-6.535819002812E0,-8.928249061523E0,4.E0));
#234=LINE('',#233,#232);
#235=CARTESIAN_POINT('',(0.E0,0.E0,4.E0));
#236=DIRECTION('',(0.E0,0.E0,-1.E0));
#237=DIRECTION('',(-5.906838492749E-1,-8.069030860059E-1,0.E0));
#238=AXIS2_PLACEMENT_3D('',#235,#236,#237);
#240=DIRECTION('',(0.E0,-1.E0,0.E0));
#241=VECTOR('',#240,2.392121520422E0);
#242=CARTESIAN_POINT('',(-1.1E1,1.196060760211E0,4.E0));
#243=LINE('',#242,#241);
#244=CARTESIAN_POINT('',(0.E0,0.E0,4.E0));
#245=DIRECTION('',(0.E0,0.E0,-1.E0));
#246=DIRECTION('',(-9.941404955106E-1,1.080956760743E-1,0.E0));
#247=AXIS2_PLACEMENT_3D('',#244,#245,#246);
#249=DIRECTION('',(-8.660254037844E-1,-5.E-1,0.E0));
#250=VECTOR('',#249,2.392121520422E0);
#251=CARTESIAN_POINT('',(-4.464180997188E0,1.012430982173E1,4.E0));
#252=LINE('',#251,#250);
#253=DIRECTION('',(-8.660254037844E-1,5.E-1,0.E0));
#254=VECTOR('',#253,2.392121520422E0);
#255=CARTESIAN_POINT('',(6.535819002812E0,8.928249061523E0,4.E0));
#256=LINE('',#255,#254);
#257=CARTESIAN_POINT('',(0.E0,0.E0,4.E0));
#258=DIRECTION('',(0.E0,0.E0,-1.E0));
#259=DIRECTION('',(5.906838492749E-1,8.069030860059E-1,0.E0));
#260=AXIS2_PLACEMENT_3D('',#257,#258,#259);
#262=DIRECTION('',(0.E0,1.E0,0.E0));
#263=VECTOR('',#262,2.392121520422E0);
#264=CARTESIAN_POINT('',(1.1E1,-1.196060760211E0,4.E0));
#265=LINE('',#264,#263);
#266=CARTESIAN_POINT('',(0.E0,0.E0,4.E0));
#267=DIRECTION('',(0.E0,0.E0,-1.E0));
#268=DIRECTION('',(9.941404955106E-1,-1.080956760743E-1,0.E0));
#269=AXIS2_PLACEMENT_3D('',#266,#267,#268);
#271=DIRECTION('',(8.660254037844E-1,5.E-1,0.E0));
#272=VECTOR('',#271,2.392121520422E0);
#273=CARTESIAN_POINT('',(4.464180997188E0,-1.012430982173E1,4.E0));
#274=LINE('',#273,#272);
#275=CARTESIAN_POINT('',(0.E0,0.E0,4.E0));
#276=DIRECTION('',(0.E0,0.E0,-1.E0));
#277=DIRECTION('',(0.E0,-1.E0,0.E0));
#278=AXIS2_PLACEMENT_3D('',#275,#276,#277);
#280=CARTESIAN_POINT('',(0.E0,0.E0,4.E0));
#281=DIRECTION('',(0.E0,0.E0,-1.E0));
#282=DIRECTION('',(0.E0,1.E0,0.E0));
#283=AXIS2_PLACEMENT_3D('',#280,#281,#282);
#285=CARTESIAN_POINT('',(0.E0,-1.270170592217E1,3.406503092586E0));
#286=CARTESIAN_POINT('',(-3.817380153004E-1,-1.248130937628E1,
3.486414478658E0));
#287=CARTESIAN_POINT('',(-1.138594559227E0,-1.204433804690E1,3.632282003370E0));
#288=CARTESIAN_POINT('',(-2.245703325677E0,-1.140514850257E1,3.804768856990E0));
#289=CARTESIAN_POINT('',(-3.351566499776E0,-1.076667810132E1,3.931719108035E0));
#290=CARTESIAN_POINT('',(-4.092882792500E0,-1.033867894016E1,3.983196319342E0));
#291=CARTESIAN_POINT('',(-4.464180997188E0,-1.012430982173E1,4.E0));
#293=CARTESIAN_POINT('',(0.E0,-1.270170592217E1,4.879563211012E-1));
#294=CARTESIAN_POINT('',(-3.784253779118E-1,-1.248322192837E1,
4.253070440153E-1));
#295=CARTESIAN_POINT('',(-1.127958575967E0,-1.205047873470E1,
3.109851647453E-1));
#296=CARTESIAN_POINT('',(-2.222538758076E0,-1.141852257191E1,
1.756431277830E-1));
#297=CARTESIAN_POINT('',(-3.311812609221E0,-1.078963002073E1,
7.575107624775E-2));
#298=CARTESIAN_POINT('',(-4.403868539063E0,-1.015913123566E1,
1.399587083537E-2));
#299=CARTESIAN_POINT('',(-5.134258370433E0,-9.737440469921E0,
7.798228753271E-12));
#300=CARTESIAN_POINT('',(-5.499999999799E0,-9.526279441753E0,
-5.454904917312E-12));
#302=CARTESIAN_POINT('',(-5.499999999799E0,-9.526279441753E0,
-5.454904917312E-12));
#303=CARTESIAN_POINT('',(-5.865733423355E0,-9.315123151211E0,
3.281438964193E-12));
#304=CARTESIAN_POINT('',(-6.596063190773E0,-8.893467063384E0,
1.399417236112E-2));
#305=CARTESIAN_POINT('',(-7.688168477773E0,-8.262939781955E0,
7.574680107834E-2));
#306=CARTESIAN_POINT('',(-8.776819912011E0,-7.634406583343E0,
1.756037338723E-1));
#307=CARTESIAN_POINT('',(-9.868008966024E0,-7.004408289272E0,
3.104342145919E-1));
#308=CARTESIAN_POINT('',(-1.061983403031E1,-6.570341886024E0,
4.250188846501E-1));
#309=CARTESIAN_POINT('',(-1.1E1,-6.350852961086E0,4.879563211012E-1));
#311=DIRECTION('',(0.E0,0.E0,1.E0));
#312=VECTOR('',#311,2.918546771485E0);
#313=CARTESIAN_POINT('',(-1.1E1,-6.350852961086E0,4.879563211012E-1));
#314=LINE('',#313,#312);
#315=CARTESIAN_POINT('',(-6.535819002812E0,-8.928249061523E0,4.E0));
#316=CARTESIAN_POINT('',(-6.907305556271E0,-8.713771199883E0,3.983187795324E0));
#317=CARTESIAN_POINT('',(-7.648764272598E0,-8.285689810419E0,3.931692824867E0));
#318=CARTESIAN_POINT('',(-8.754572968058E0,-7.647250862423E0,3.804715589606E0));
#319=CARTESIAN_POINT('',(-9.860065894257E0,-7.008994223895E0,3.632508308030E0));
#320=CARTESIAN_POINT('',(-1.061767428691E1,-6.571588814457E0,3.486537504773E0));
#321=CARTESIAN_POINT('',(-1.1E1,-6.350852961086E0,3.406503092586E0));
#323=CARTESIAN_POINT('',(0.E0,0.E0,4.E0));
#324=DIRECTION('',(0.E0,0.E0,1.E0));
#325=DIRECTION('',(-4.034566462357E-1,-9.149987620802E-1,0.E0));
#326=AXIS2_PLACEMENT_3D('',#323,#324,#325);
#328=CARTESIAN_POINT('',(0.E0,0.E0,4.E0));
#329=DIRECTION('',(0.E0,0.E0,1.E0));
#330=DIRECTION('',(4.034566462357E-1,9.149987620802E-1,0.E0));
#331=AXIS2_PLACEMENT_3D('',#328,#329,#330);
#333=DIRECTION('',(0.E0,8.660254037844E-1,-5.E-1));
#334=VECTOR('',#333,6.E-1);
#335=CARTESIAN_POINT('',(0.E0,-9.519615242271E0,4.E0));
#336=LINE('',#335,#334);
#337=DIRECTION('',(0.E0,-8.660254037844E-1,-5.E-1));
#338=VECTOR('',#337,6.E-1);
#339=CARTESIAN_POINT('',(0.E0,9.519615242271E0,4.E0));
#340=LINE('',#339,#338);
#341=CARTESIAN_POINT('',(0.E0,0.E0,3.7E0));
#342=DIRECTION('',(0.E0,0.E0,1.E0));
#343=DIRECTION('',(-1.E0,0.E0,0.E0));
#344=AXIS2_PLACEMENT_3D('',#341,#342,#343);
#346=DIRECTION('',(-1.718555038417E-7,-8.753756286947E-10,-1.E0));
#347=VECTOR('',#346,2.399999587385E0);
#348=CARTESIAN_POINT('',(-9.E0,0.E0,3.7E0));
#349=LINE('',#348,#347);
#350=CARTESIAN_POINT('',(0.E0,0.E0,1.299998421573E0));
#351=DIRECTION('',(0.E0,0.E0,1.E0));
#352=DIRECTION('',(-1.E0,0.E0,0.E0));
#353=AXIS2_PLACEMENT_3D('',#350,#351,#352);
#355=CARTESIAN_POINT('',(0.E0,0.E0,3.7E0));
#356=DIRECTION('',(0.E0,0.E0,1.E0));
#357=DIRECTION('',(0.E0,-1.E0,0.E0));
#358=AXIS2_PLACEMENT_3D('',#355,#356,#357);
#360=CARTESIAN_POINT('',(0.E0,0.E0,3.7E0));
#361=DIRECTION('',(0.E0,0.E0,1.E0));
#362=DIRECTION('',(0.E0,1.E0,0.E0));
#363=AXIS2_PLACEMENT_3D('',#360,#361,#362);
#365=CARTESIAN_POINT('',(0.E0,0.E0,3.7E0));
#366=DIRECTION('',(0.E0,0.E0,1.E0));
#367=DIRECTION('',(1.E0,0.E0,0.E0));
#368=AXIS2_PLACEMENT_3D('',#365,#366,#367);
#370=DIRECTION('',(1.718555031015E-7,8.753753917579E-10,-1.E0));
#371=VECTOR('',#370,2.399999587385E0);
#372=CARTESIAN_POINT('',(9.E0,0.E0,3.7E0));
#373=LINE('',#372,#371);
#374=CARTESIAN_POINT('',(0.E0,0.E0,1.299998421573E0));
#375=DIRECTION('',(0.E0,0.E0,1.E0));
#376=DIRECTION('',(1.E0,0.E0,0.E0));
#377=AXIS2_PLACEMENT_3D('',#374,#375,#376);
#379=DIRECTION('',(-7.071068991985E-1,-6.009958527527E-10,7.071066631746E-1));
#380=VECTOR('',#379,1.838477631025E0);
#381=CARTESIAN_POINT('',(1.030000062937E1,3.205816771500E-9,6.296199490663E-7));
#382=LINE('',#381,#380);
#383=DIRECTION('',(7.071068991985E-1,6.009968582029E-10,7.071066631746E-1));
#384=VECTOR('',#383,1.838477631025E0);
#385=CARTESIAN_POINT('',(-1.030000062937E1,-3.205819210571E-9,
6.296199532111E-7));
#386=LINE('',#385,#384);
#387=CARTESIAN_POINT('',(-6.535819002812E0,-8.928249061523E0,4.E0));
#388=CARTESIAN_POINT('',(-4.464180997188E0,-1.012430982173E1,4.E0));
#389=VERTEX_POINT('',#387);
#390=VERTEX_POINT('',#388);
#391=CARTESIAN_POINT('',(4.464180997188E0,-1.012430982173E1,4.E0));
#392=CARTESIAN_POINT('',(6.535819002812E0,-8.928249061523E0,4.E0));
#393=VERTEX_POINT('',#391);
#394=VERTEX_POINT('',#392);
#395=CARTESIAN_POINT('',(0.E0,-1.270170592217E1,4.879563211012E-1));
#396=CARTESIAN_POINT('',(0.E0,-1.270170592217E1,3.406503092586E0));
#397=VERTEX_POINT('',#395);
#398=VERTEX_POINT('',#396);
#399=CARTESIAN_POINT('',(-5.499999999651E0,-9.526279441830E0,0.E0));
#400=CARTESIAN_POINT('',(-1.1E1,-1.753751659450E-7,0.E0));
#401=VERTEX_POINT('',#399);
#402=VERTEX_POINT('',#400);
#403=CARTESIAN_POINT('',(-5.500000211885E0,9.526279319297E0,0.E0));
#404=VERTEX_POINT('',#403);
#405=CARTESIAN_POINT('',(5.499999758249E0,9.526279581204E0,0.E0));
#406=CARTESIAN_POINT('',(1.1E1,1.753751677214E-7,0.E0));
#407=VERTEX_POINT('',#405);
#408=VERTEX_POINT('',#406);
#409=CARTESIAN_POINT('',(5.500000000272E0,-9.526279441472E0,0.E0));
#410=VERTEX_POINT('',#409);
#411=CARTESIAN_POINT('',(-1.1E1,-1.196060760211E0,4.E0));
#412=VERTEX_POINT('',#411);
#413=CARTESIAN_POINT('',(-1.1E1,1.196060760211E0,4.E0));
#414=CARTESIAN_POINT('',(-6.535819002812E0,8.928249061523E0,4.E0));
#415=VERTEX_POINT('',#413);
#416=VERTEX_POINT('',#414);
#417=CARTESIAN_POINT('',(6.535819002812E0,8.928249061523E0,4.E0));
#418=CARTESIAN_POINT('',(1.1E1,1.196060760211E0,4.E0));
#419=VERTEX_POINT('',#417);
#420=VERTEX_POINT('',#418);
#421=CARTESIAN_POINT('',(1.1E1,-1.196060760211E0,4.E0));
#422=VERTEX_POINT('',#421);
#423=VERTEX_POINT('',#79);
#424=VERTEX_POINT('',#95);
#425=VERTEX_POINT('',#109);
#426=VERTEX_POINT('',#101);
#427=VERTEX_POINT('',#107);
#428=VERTEX_POINT('',#41);
#429=VERTEX_POINT('',#71);
#430=VERTEX_POINT('',#201);
#431=VERTEX_POINT('',#193);
#432=VERTEX_POINT('',#155);
#433=VERTEX_POINT('',#185);
#434=VERTEX_POINT('',#153);
#435=CARTESIAN_POINT('',(1.030000004375E1,0.E0,1.844736129186E-6));
#436=CARTESIAN_POINT('',(-1.030000004375E1,0.E0,1.844736129186E-6));
#437=VERTEX_POINT('',#435);
#438=VERTEX_POINT('',#436);
#439=CARTESIAN_POINT('',(9.E0,0.E0,1.299998421573E0));
#440=CARTESIAN_POINT('',(-9.E0,0.E0,1.299998421573E0));
#441=VERTEX_POINT('',#439);
#442=VERTEX_POINT('',#440);
#443=CARTESIAN_POINT('',(0.E0,-9.519615242271E0,4.E0));
#444=CARTESIAN_POINT('',(0.E0,9.519615242271E0,4.E0));
#445=VERTEX_POINT('',#443);
#446=VERTEX_POINT('',#444);
#447=CARTESIAN_POINT('',(0.E0,9.E0,3.7E0));
#448=CARTESIAN_POINT('',(-9.E0,0.E0,3.7E0));
#449=VERTEX_POINT('',#447);
#450=VERTEX_POINT('',#448);
#451=CARTESIAN_POINT('',(9.E0,0.E0,3.7E0));
#452=VERTEX_POINT('',#451);
#453=CARTESIAN_POINT('',(0.E0,-9.E0,3.7E0));
#454=VERTEX_POINT('',#453);
#455=CARTESIAN_POINT('',(0.E0,0.E0,0.E0));
#456=DIRECTION('',(0.E0,0.E0,1.E0));
#457=DIRECTION('',(1.E0,0.E0,0.E0));
#458=AXIS2_PLACEMENT_3D('',#455,#456,#457);
#459=PLANE('',#458);
#461=ORIENTED_EDGE('',*,*,#460,.F.);
#463=ORIENTED_EDGE('',*,*,#462,.F.);
#465=ORIENTED_EDGE('',*,*,#464,.F.);
#467=ORIENTED_EDGE('',*,*,#466,.F.);
#469=ORIENTED_EDGE('',*,*,#468,.F.);
#471=ORIENTED_EDGE('',*,*,#470,.F.);
#472=EDGE_LOOP('',(#461,#463,#465,#467,#469,#471));
#473=FACE_OUTER_BOUND('',#472,.F.);
#475=ORIENTED_EDGE('',*,*,#474,.F.);
#477=ORIENTED_EDGE('',*,*,#476,.F.);
#478=EDGE_LOOP('',(#475,#477));
#479=FACE_BOUND('',#478,.F.);
#480=ADVANCED_FACE('',(#473,#479),#459,.F.);
#481=CARTESIAN_POINT('',(0.E0,0.E0,2.439781605506E-1));
#482=DIRECTION('',(0.E0,0.E0,1.E0));
#483=DIRECTION('',(0.E0,1.E0,0.E0));
#484=AXIS2_PLACEMENT_3D('',#481,#482,#483);
#485=CONICAL_SURFACE('',#484,1.185085296109E1,7.4E1);
#486=ORIENTED_EDGE('',*,*,#470,.T.);
#488=ORIENTED_EDGE('',*,*,#487,.F.);
#490=ORIENTED_EDGE('',*,*,#489,.F.);
#491=EDGE_LOOP('',(#486,#488,#490));
#492=FACE_OUTER_BOUND('',#491,.F.);
#493=ADVANCED_FACE('',(#492),#485,.T.);
#494=CARTESIAN_POINT('',(0.E0,0.E0,2.439781605506E-1));
#495=DIRECTION('',(0.E0,0.E0,1.E0));
#496=DIRECTION('',(0.E0,1.E0,0.E0));
#497=AXIS2_PLACEMENT_3D('',#494,#495,#496);
#498=CONICAL_SURFACE('',#497,1.185085296109E1,7.4E1);
#499=ORIENTED_EDGE('',*,*,#466,.T.);
#501=ORIENTED_EDGE('',*,*,#500,.F.);
#503=ORIENTED_EDGE('',*,*,#502,.F.);
#504=EDGE_LOOP('',(#499,#501,#503));
#505=FACE_OUTER_BOUND('',#504,.F.);
#506=ADVANCED_FACE('',(#505),#498,.T.);
#507=CARTESIAN_POINT('',(0.E0,0.E0,2.439781605506E-1));
#508=DIRECTION('',(0.E0,0.E0,1.E0));
#509=DIRECTION('',(0.E0,1.E0,0.E0));
#510=AXIS2_PLACEMENT_3D('',#507,#508,#509);
#511=CONICAL_SURFACE('',#510,1.185085296109E1,7.4E1);
#513=ORIENTED_EDGE('',*,*,#512,.F.);
#515=ORIENTED_EDGE('',*,*,#514,.F.);
#516=ORIENTED_EDGE('',*,*,#460,.T.);
#517=EDGE_LOOP('',(#513,#515,#516));
#518=FACE_OUTER_BOUND('',#517,.F.);
#519=ADVANCED_FACE('',(#518),#511,.T.);
#520=CARTESIAN_POINT('',(0.E0,0.E0,2.439781605506E-1));
#521=DIRECTION('',(0.E0,0.E0,1.E0));
#522=DIRECTION('',(0.E0,1.E0,0.E0));
#523=AXIS2_PLACEMENT_3D('',#520,#521,#522);
#524=CONICAL_SURFACE('',#523,1.185085296109E1,7.4E1);
#525=ORIENTED_EDGE('',*,*,#464,.T.);
#527=ORIENTED_EDGE('',*,*,#526,.F.);
#529=ORIENTED_EDGE('',*,*,#528,.F.);
#530=EDGE_LOOP('',(#525,#527,#529));
#531=FACE_OUTER_BOUND('',#530,.F.);
#532=ADVANCED_FACE('',(#531),#524,.T.);
#533=CARTESIAN_POINT('',(0.E0,0.E0,2.439781605506E-1));
#534=DIRECTION('',(0.E0,0.E0,1.E0));
#535=DIRECTION('',(0.E0,1.E0,0.E0));
#536=AXIS2_PLACEMENT_3D('',#533,#534,#535);
#537=CONICAL_SURFACE('',#536,1.185085296109E1,7.4E1);
#538=ORIENTED_EDGE('',*,*,#462,.T.);
#540=ORIENTED_EDGE('',*,*,#539,.F.);
#542=ORIENTED_EDGE('',*,*,#541,.F.);
#543=EDGE_LOOP('',(#538,#540,#542));
#544=FACE_OUTER_BOUND('',#543,.F.);
#545=ADVANCED_FACE('',(#544),#537,.T.);
#546=CARTESIAN_POINT('',(-1.1E1,6.350852961086E0,0.E0));
#547=DIRECTION('',(-1.E0,0.E0,0.E0));
#548=DIRECTION('',(0.E0,-1.E0,0.E0));
#549=AXIS2_PLACEMENT_3D('',#546,#547,#548);
#550=PLANE('',#549);
#551=ORIENTED_EDGE('',*,*,#487,.T.);
#553=ORIENTED_EDGE('',*,*,#552,.T.);
#555=ORIENTED_EDGE('',*,*,#554,.T.);
#557=ORIENTED_EDGE('',*,*,#556,.F.);
#559=ORIENTED_EDGE('',*,*,#558,.T.);
#561=ORIENTED_EDGE('',*,*,#560,.F.);
#563=ORIENTED_EDGE('',*,*,#562,.F.);
#564=EDGE_LOOP('',(#551,#553,#555,#557,#559,#561,#563));
#565=FACE_OUTER_BOUND('',#564,.F.);
#566=ADVANCED_FACE('',(#565),#550,.T.);
#567=CARTESIAN_POINT('',(0.E0,0.E0,2.439781605506E-1));
#568=DIRECTION('',(0.E0,0.E0,1.E0));
#569=DIRECTION('',(0.E0,1.E0,0.E0));
#570=AXIS2_PLACEMENT_3D('',#567,#568,#569);
#571=CONICAL_SURFACE('',#570,1.185085296109E1,7.4E1);
#572=ORIENTED_EDGE('',*,*,#468,.T.);
#574=ORIENTED_EDGE('',*,*,#573,.F.);
#575=ORIENTED_EDGE('',*,*,#552,.F.);
#576=EDGE_LOOP('',(#572,#574,#575));
#577=FACE_OUTER_BOUND('',#576,.F.);
#578=ADVANCED_FACE('',(#577),#571,.T.);
#579=CARTESIAN_POINT('',(0.E0,1.270170592217E1,0.E0));
#580=DIRECTION('',(-5.E-1,8.660254037844E-1,0.E0));
#581=DIRECTION('',(-8.660254037844E-1,-5.E-1,0.E0));
#582=AXIS2_PLACEMENT_3D('',#579,#580,#581);
#583=PLANE('',#582);
#584=ORIENTED_EDGE('',*,*,#573,.T.);
#585=ORIENTED_EDGE('',*,*,#502,.T.);
#587=ORIENTED_EDGE('',*,*,#586,.T.);
#589=ORIENTED_EDGE('',*,*,#588,.F.);
#591=ORIENTED_EDGE('',*,*,#590,.T.);
#593=ORIENTED_EDGE('',*,*,#592,.F.);
#594=ORIENTED_EDGE('',*,*,#554,.F.);
#595=EDGE_LOOP('',(#584,#585,#587,#589,#591,#593,#594));
#596=FACE_OUTER_BOUND('',#595,.F.);
#597=ADVANCED_FACE('',(#596),#583,.T.);
#598=CARTESIAN_POINT('',(1.1E1,6.350852961086E0,0.E0));
#599=DIRECTION('',(5.E-1,8.660254037844E-1,0.E0));
#600=DIRECTION('',(-8.660254037844E-1,5.E-1,0.E0));
#601=AXIS2_PLACEMENT_3D('',#598,#599,#600);
#602=PLANE('',#601);
#603=ORIENTED_EDGE('',*,*,#500,.T.);
#604=ORIENTED_EDGE('',*,*,#528,.T.);
#606=ORIENTED_EDGE('',*,*,#605,.T.);
#608=ORIENTED_EDGE('',*,*,#607,.F.);
#610=ORIENTED_EDGE('',*,*,#609,.T.);
#612=ORIENTED_EDGE('',*,*,#611,.F.);
#613=ORIENTED_EDGE('',*,*,#586,.F.);
#614=EDGE_LOOP('',(#603,#604,#606,#608,#610,#612,#613));
#615=FACE_OUTER_BOUND('',#614,.F.);
#616=ADVANCED_FACE('',(#615),#602,.T.);
#617=CARTESIAN_POINT('',(1.1E1,-6.350852961086E0,0.E0));
#618=DIRECTION('',(1.E0,0.E0,0.E0));
#619=DIRECTION('',(0.E0,1.E0,0.E0));
#620=AXIS2_PLACEMENT_3D('',#617,#618,#619);
#621=PLANE('',#620);
#622=ORIENTED_EDGE('',*,*,#526,.T.);
#623=ORIENTED_EDGE('',*,*,#541,.T.);
#625=ORIENTED_EDGE('',*,*,#624,.T.);
#627=ORIENTED_EDGE('',*,*,#626,.F.);
#629=ORIENTED_EDGE('',*,*,#628,.T.);
#631=ORIENTED_EDGE('',*,*,#630,.F.);
#632=ORIENTED_EDGE('',*,*,#605,.F.);
#633=EDGE_LOOP('',(#622,#623,#625,#627,#629,#631,#632));
#634=FACE_OUTER_BOUND('',#633,.F.);
#635=ADVANCED_FACE('',(#634),#621,.T.);
#636=CARTESIAN_POINT('',(0.E0,-1.270170592217E1,0.E0));
#637=DIRECTION('',(5.E-1,-8.660254037844E-1,0.E0));
#638=DIRECTION('',(8.660254037844E-1,5.E-1,0.E0));
#639=AXIS2_PLACEMENT_3D('',#636,#637,#638);
#640=PLANE('',#639);
#642=ORIENTED_EDGE('',*,*,#641,.T.);
#644=ORIENTED_EDGE('',*,*,#643,.F.);
#645=ORIENTED_EDGE('',*,*,#624,.F.);
#646=ORIENTED_EDGE('',*,*,#539,.T.);
#647=ORIENTED_EDGE('',*,*,#514,.T.);
#649=ORIENTED_EDGE('',*,*,#648,.T.);
#651=ORIENTED_EDGE('',*,*,#650,.F.);
#652=EDGE_LOOP('',(#642,#644,#645,#646,#647,#649,#651));
#653=FACE_OUTER_BOUND('',#652,.F.);
#654=ADVANCED_FACE('',(#653),#640,.T.);
#655=CARTESIAN_POINT('',(0.E0,0.E0,4.E0));
#656=DIRECTION('',(0.E0,0.E0,1.E0));
#657=DIRECTION('',(1.E0,0.E0,0.E0));
#658=AXIS2_PLACEMENT_3D('',#655,#656,#657);
#659=PLANE('',#658);
#661=ORIENTED_EDGE('',*,*,#660,.F.);
#663=ORIENTED_EDGE('',*,*,#662,.T.);
#664=ORIENTED_EDGE('',*,*,#558,.F.);
#666=ORIENTED_EDGE('',*,*,#665,.T.);
#667=ORIENTED_EDGE('',*,*,#590,.F.);
#669=ORIENTED_EDGE('',*,*,#668,.F.);
#670=ORIENTED_EDGE('',*,*,#609,.F.);
#672=ORIENTED_EDGE('',*,*,#671,.T.);
#673=ORIENTED_EDGE('',*,*,#628,.F.);
#675=ORIENTED_EDGE('',*,*,#674,.T.);
#676=ORIENTED_EDGE('',*,*,#641,.F.);
#678=ORIENTED_EDGE('',*,*,#677,.F.);
#679=EDGE_LOOP('',(#661,#663,#664,#666,#667,#669,#670,#672,#673,#675,#676,
#678));
#680=FACE_OUTER_BOUND('',#679,.F.);
#682=ORIENTED_EDGE('',*,*,#681,.F.);
#684=ORIENTED_EDGE('',*,*,#683,.F.);
#685=EDGE_LOOP('',(#682,#684));
#686=FACE_BOUND('',#685,.F.);
#687=ADVANCED_FACE('',(#680,#686),#659,.T.);
#688=CARTESIAN_POINT('',(-1.1E1,-6.350852961086E0,0.E0));
#689=DIRECTION('',(-5.E-1,-8.660254037844E-1,0.E0));
#690=DIRECTION('',(8.660254037844E-1,-5.E-1,0.E0));
#691=AXIS2_PLACEMENT_3D('',#688,#689,#690);
#692=PLANE('',#691);
#693=ORIENTED_EDGE('',*,*,#660,.T.);
#695=ORIENTED_EDGE('',*,*,#694,.F.);
#696=ORIENTED_EDGE('',*,*,#648,.F.);
#697=ORIENTED_EDGE('',*,*,#512,.T.);
#698=ORIENTED_EDGE('',*,*,#489,.T.);
#699=ORIENTED_EDGE('',*,*,#562,.T.);
#701=ORIENTED_EDGE('',*,*,#700,.F.);
#702=EDGE_LOOP('',(#693,#695,#696,#697,#698,#699,#701));
#703=FACE_OUTER_BOUND('',#702,.F.);
#704=ADVANCED_FACE('',(#703),#692,.T.);
#705=CARTESIAN_POINT('',(0.E0,0.E0,3.703251546293E0));
#706=DIRECTION('',(0.E0,0.E0,-1.E0));
#707=DIRECTION('',(0.E0,-1.E0,0.E0));
#708=AXIS2_PLACEMENT_3D('',#705,#706,#707);
#709=CONICAL_SURFACE('',#708,1.188327018464E1,7.007036666442E1);
#710=ORIENTED_EDGE('',*,*,#674,.F.);
#711=ORIENTED_EDGE('',*,*,#626,.T.);
#712=ORIENTED_EDGE('',*,*,#643,.T.);
#713=EDGE_LOOP('',(#710,#711,#712));
#714=FACE_OUTER_BOUND('',#713,.F.);
#715=ADVANCED_FACE('',(#714),#709,.T.);
#716=CARTESIAN_POINT('',(0.E0,0.E0,3.703251546293E0));
#717=DIRECTION('',(0.E0,0.E0,-1.E0));
#718=DIRECTION('',(0.E0,-1.E0,0.E0));
#719=AXIS2_PLACEMENT_3D('',#716,#717,#718);
#720=CONICAL_SURFACE('',#719,1.188327018464E1,7.007036666442E1);
#721=ORIENTED_EDGE('',*,*,#671,.F.);
#722=ORIENTED_EDGE('',*,*,#607,.T.);
#723=ORIENTED_EDGE('',*,*,#630,.T.);
#724=EDGE_LOOP('',(#721,#722,#723));
#725=FACE_OUTER_BOUND('',#724,.F.);
#726=ADVANCED_FACE('',(#725),#720,.T.);
#727=CARTESIAN_POINT('',(0.E0,0.E0,3.703251546293E0));
#728=DIRECTION('',(0.E0,0.E0,-1.E0));
#729=DIRECTION('',(0.E0,-1.E0,0.E0));
#730=AXIS2_PLACEMENT_3D('',#727,#728,#729);
#731=CONICAL_SURFACE('',#730,1.188327018464E1,7.007036666442E1);
#732=ORIENTED_EDGE('',*,*,#677,.T.);
#733=ORIENTED_EDGE('',*,*,#650,.T.);
#734=ORIENTED_EDGE('',*,*,#694,.T.);
#735=EDGE_LOOP('',(#732,#733,#734));
#736=FACE_OUTER_BOUND('',#735,.F.);
#737=ADVANCED_FACE('',(#736),#731,.T.);
#738=CARTESIAN_POINT('',(0.E0,0.E0,3.703251546293E0));
#739=DIRECTION('',(0.E0,0.E0,-1.E0));
#740=DIRECTION('',(0.E0,-1.E0,0.E0));
#741=AXIS2_PLACEMENT_3D('',#738,#739,#740);
#742=CONICAL_SURFACE('',#741,1.188327018464E1,7.007036666442E1);
#743=ORIENTED_EDGE('',*,*,#662,.F.);
#744=ORIENTED_EDGE('',*,*,#700,.T.);
#745=ORIENTED_EDGE('',*,*,#560,.T.);
#746=EDGE_LOOP('',(#743,#744,#745));
#747=FACE_OUTER_BOUND('',#746,.F.);
#748=ADVANCED_FACE('',(#747),#742,.T.);
#749=CARTESIAN_POINT('',(0.E0,0.E0,3.703251546293E0));
#750=DIRECTION('',(0.E0,0.E0,-1.E0));
#751=DIRECTION('',(0.E0,-1.E0,0.E0));
#752=AXIS2_PLACEMENT_3D('',#749,#750,#751);
#753=CONICAL_SURFACE('',#752,1.188327018464E1,7.007036666442E1);
#754=ORIENTED_EDGE('',*,*,#665,.F.);
#755=ORIENTED_EDGE('',*,*,#556,.T.);
#756=ORIENTED_EDGE('',*,*,#592,.T.);
#757=EDGE_LOOP('',(#754,#755,#756));
#758=FACE_OUTER_BOUND('',#757,.F.);
#759=ADVANCED_FACE('',(#758),#753,.T.);
#760=CARTESIAN_POINT('',(0.E0,0.E0,3.703251546293E0));
#761=DIRECTION('',(0.E0,0.E0,-1.E0));
#762=DIRECTION('',(0.E0,-1.E0,0.E0));
#763=AXIS2_PLACEMENT_3D('',#760,#761,#762);
#764=CONICAL_SURFACE('',#763,1.188327018464E1,7.007036666442E1);
#765=ORIENTED_EDGE('',*,*,#588,.T.);
#766=ORIENTED_EDGE('',*,*,#611,.T.);
#767=ORIENTED_EDGE('',*,*,#668,.T.);
#768=EDGE_LOOP('',(#765,#766,#767));
#769=FACE_OUTER_BOUND('',#768,.F.);
#770=ADVANCED_FACE('',(#769),#764,.T.);
#771=CARTESIAN_POINT('',(0.E0,0.E0,3.85E0));
#772=DIRECTION('',(0.E0,0.E0,1.E0));
#773=DIRECTION('',(0.E0,1.E0,0.E0));
#774=AXIS2_PLACEMENT_3D('',#771,#772,#773);
#775=CONICAL_SURFACE('',#774,9.259807621135E0,6.E1);
#776=ORIENTED_EDGE('',*,*,#681,.T.);
#778=ORIENTED_EDGE('',*,*,#777,.T.);
#780=ORIENTED_EDGE('',*,*,#779,.T.);
#782=ORIENTED_EDGE('',*,*,#781,.T.);
#784=ORIENTED_EDGE('',*,*,#783,.F.);
#785=EDGE_LOOP('',(#776,#778,#780,#782,#784));
#786=FACE_OUTER_BOUND('',#785,.F.);
#787=ADVANCED_FACE('',(#786),#775,.F.);
#788=CARTESIAN_POINT('',(0.E0,0.E0,3.85E0));
#789=DIRECTION('',(0.E0,0.E0,1.E0));
#790=DIRECTION('',(0.E0,1.E0,0.E0));
#791=AXIS2_PLACEMENT_3D('',#788,#789,#790);
#792=CONICAL_SURFACE('',#791,9.259807621135E0,6.E1);
#793=ORIENTED_EDGE('',*,*,#683,.T.);
#794=ORIENTED_EDGE('',*,*,#783,.T.);
#796=ORIENTED_EDGE('',*,*,#795,.T.);
#798=ORIENTED_EDGE('',*,*,#797,.T.);
#799=ORIENTED_EDGE('',*,*,#777,.F.);
#800=EDGE_LOOP('',(#793,#794,#796,#798,#799));
#801=FACE_OUTER_BOUND('',#800,.F.);
#802=ADVANCED_FACE('',(#801),#792,.F.);
#803=CARTESIAN_POINT('',(0.E0,0.E0,4.E0));
#804=DIRECTION('',(0.E0,0.E0,1.E0));
#805=DIRECTION('',(1.E0,0.E0,0.E0));
#806=AXIS2_PLACEMENT_3D('',#803,#804,#805);
#807=CYLINDRICAL_SURFACE('',#806,9.E0);
#808=ORIENTED_EDGE('',*,*,#781,.F.);
#810=ORIENTED_EDGE('',*,*,#809,.T.);
#812=ORIENTED_EDGE('',*,*,#811,.T.);
#814=ORIENTED_EDGE('',*,*,#813,.F.);
#815=ORIENTED_EDGE('',*,*,#795,.F.);
#816=EDGE_LOOP('',(#808,#810,#812,#814,#815));
#817=FACE_OUTER_BOUND('',#816,.F.);
#818=ADVANCED_FACE('',(#817),#807,.F.);
#819=CARTESIAN_POINT('',(0.E0,0.E0,4.E0));
#820=DIRECTION('',(0.E0,0.E0,1.E0));
#821=DIRECTION('',(1.E0,0.E0,0.E0));
#822=AXIS2_PLACEMENT_3D('',#819,#820,#821);
#823=CYLINDRICAL_SURFACE('',#822,9.E0);
#824=ORIENTED_EDGE('',*,*,#779,.F.);
#825=ORIENTED_EDGE('',*,*,#797,.F.);
#826=ORIENTED_EDGE('',*,*,#813,.T.);
#828=ORIENTED_EDGE('',*,*,#827,.T.);
#829=ORIENTED_EDGE('',*,*,#809,.F.);
#830=EDGE_LOOP('',(#824,#825,#826,#828,#829));
#831=FACE_OUTER_BOUND('',#830,.F.);
#832=ADVANCED_FACE('',(#831),#823,.F.);
#833=CARTESIAN_POINT('',(0.E0,0.E0,6.500006471388E-1));
#834=DIRECTION('',(0.E0,0.E0,-1.E0));
#835=DIRECTION('',(0.E0,-1.E0,0.E0));
#836=AXIS2_PLACEMENT_3D('',#833,#834,#835);
#837=CONICAL_SURFACE('',#836,9.650001122174E0,4.500000525255E1);
#838=ORIENTED_EDGE('',*,*,#474,.T.);
#840=ORIENTED_EDGE('',*,*,#839,.T.);
#841=ORIENTED_EDGE('',*,*,#827,.F.);
#843=ORIENTED_EDGE('',*,*,#842,.F.);
#844=EDGE_LOOP('',(#838,#840,#841,#843));
#845=FACE_OUTER_BOUND('',#844,.F.);
#846=ADVANCED_FACE('',(#845),#837,.F.);
#847=CARTESIAN_POINT('',(-1.065814103640E-14,0.E0,6.500006471387E-1));
#848=DIRECTION('',(0.E0,0.E0,-1.E0));
#849=DIRECTION('',(0.E0,-1.E0,0.E0));
#850=AXIS2_PLACEMENT_3D('',#847,#848,#849);
#851=CONICAL_SURFACE('',#850,9.650001122174E0,4.500000525255E1);
#852=ORIENTED_EDGE('',*,*,#476,.T.);
#853=ORIENTED_EDGE('',*,*,#842,.T.);
#854=ORIENTED_EDGE('',*,*,#811,.F.);
#855=ORIENTED_EDGE('',*,*,#839,.F.);
#856=EDGE_LOOP('',(#852,#853,#854,#855));
#857=FACE_OUTER_BOUND('',#856,.F.);
#858=ADVANCED_FACE('',(#857),#851,.F.);
#859=OPEN_SHELL('',(#480,#493,#506,#519,#532,#545,#566,#578,#597,#616,#635,#654,
#687,#704,#715,#726,#737,#748,#759,#770,#787,#802,#818,#832,#846,#858));
#860=SHELL_BASED_SURFACE_MODEL('',(#859));
#862=DIMENSIONAL_EXPONENTS(0.E0,0.E0,0.E0,0.E0,0.E0,0.E0,0.E0);
#864=PLANE_ANGLE_MEASURE_WITH_UNIT(PLANE_ANGLE_MEASURE(1.745329251994E-2),#863);
#865=(CONVERSION_BASED_UNIT('DEGREE',#864)NAMED_UNIT(*)PLANE_ANGLE_UNIT());
#867=UNCERTAINTY_MEASURE_WITH_UNIT(LENGTH_MEASURE(3.696463196155E-3),#861,
'closure',
'Maximum model space distance between geometric entities at asserted connectivities');
#868=(GEOMETRIC_REPRESENTATION_CONTEXT(3)GLOBAL_UNCERTAINTY_ASSIGNED_CONTEXT((
#867))GLOBAL_UNIT_ASSIGNED_CONTEXT((#861,#865,#866))REPRESENTATION_CONTEXT
('ID1','3'));
#870=APPLICATION_CONTEXT(
'CONFIGURATION CONTROLLED 3D DESIGNS OF MECHANICAL PARTS AND ASSEMBLIES');
#871=APPLICATION_PROTOCOL_DEFINITION('international standard',
'config_control_design',1994,#870);
#872=DESIGN_CONTEXT('',#870,'design');
#873=MECHANICAL_CONTEXT('',#870,'mechanical');
#874=PRODUCT('10-855','10-855','NOT SPECIFIED',(#873));
#875=PRODUCT_DEFINITION_FORMATION_WITH_SPECIFIED_SOURCE('1','LAST_VERSION',#874,
.MADE.);
#879=PRODUCT_CATEGORY('part','');
#880=PRODUCT_RELATED_PRODUCT_CATEGORY('detail','',(#874));
#881=PRODUCT_CATEGORY_RELATIONSHIP('','',#879,#880);
#882=SECURITY_CLASSIFICATION_LEVEL('unclassified');
#883=SECURITY_CLASSIFICATION('','',#882);
#884=CC_DESIGN_SECURITY_CLASSIFICATION(#883,(#875));
#885=APPROVAL_STATUS('approved');
#886=APPROVAL(#885,'');
#887=CC_DESIGN_APPROVAL(#886,(#883,#875,#876));
#888=CALENDAR_DATE(112,2,3);
#889=COORDINATED_UNIVERSAL_TIME_OFFSET(1,0,.AHEAD.);
#890=LOCAL_TIME(8,42,3.E0,#889);
#891=DATE_AND_TIME(#888,#890);
#892=APPROVAL_DATE_TIME(#891,#886);
#893=DATE_TIME_ROLE('creation_date');
#894=CC_DESIGN_DATE_AND_TIME_ASSIGNMENT(#891,#893,(#876));
#895=DATE_TIME_ROLE('classification_date');
#896=CC_DESIGN_DATE_AND_TIME_ASSIGNMENT(#891,#895,(#883));
#897=PERSON('UNSPECIFIED','UNSPECIFIED',$,$,$,$);
#898=ORGANIZATION('UNSPECIFIED','UNSPECIFIED','UNSPECIFIED');
#899=PERSON_AND_ORGANIZATION(#897,#898);
#900=APPROVAL_ROLE('approver');
#901=APPROVAL_PERSON_ORGANIZATION(#899,#886,#900);
#902=PERSON_AND_ORGANIZATION_ROLE('creator');
#903=CC_DESIGN_PERSON_AND_ORGANIZATION_ASSIGNMENT(#899,#902,(#875,#876));
#904=PERSON_AND_ORGANIZATION_ROLE('design_supplier');
#905=CC_DESIGN_PERSON_AND_ORGANIZATION_ASSIGNMENT(#899,#904,(#875));
#906=PERSON_AND_ORGANIZATION_ROLE('classification_officer');
#907=CC_DESIGN_PERSON_AND_ORGANIZATION_ASSIGNMENT(#899,#906,(#883));
#908=PERSON_AND_ORGANIZATION_ROLE('design_owner');
#909=CC_DESIGN_PERSON_AND_ORGANIZATION_ASSIGNMENT(#899,#908,(#874));
#5=CIRCLE('',#4,1.1E1);
#10=CIRCLE('',#9,1.1E1);
#15=CIRCLE('',#14,1.1E1);
#20=CIRCLE('',#19,1.1E1);
#25=CIRCLE('',#24,1.030000004375E1);
#30=CIRCLE('',#29,1.030000004375E1);
#35=CIRCLE('',#34,1.1E1);
#40=CIRCLE('',#39,1.1E1);
#49=B_SPLINE_CURVE_WITH_KNOTS('',3,(#41,#42,#43,#44,#45,#46,#47,#48),
.UNSPECIFIED.,.F.,.F.,(4,1,1,1,1,4),(0.E0,2.E-1,4.E-1,6.E-1,8.E-1,1.E0),
.UNSPECIFIED.);
#58=B_SPLINE_CURVE_WITH_KNOTS('',3,(#50,#51,#52,#53,#54,#55,#56,#57),
.UNSPECIFIED.,.F.,.F.,(4,1,1,1,1,4),(0.E0,2.E-1,4.E-1,6.E-1,8.E-1,1.E0),
.UNSPECIFIED.);
#70=B_SPLINE_CURVE_WITH_KNOTS('',3,(#63,#64,#65,#66,#67,#68,#69),.UNSPECIFIED.,
.F.,.F.,(4,1,1,1,4),(0.E0,2.5E-1,5.E-1,7.5E-1,1.E0),.UNSPECIFIED.);
#78=B_SPLINE_CURVE_WITH_KNOTS('',3,(#71,#72,#73,#74,#75,#76,#77),.UNSPECIFIED.,
.F.,.F.,(4,1,1,1,4),(0.E0,2.5E-1,5.E-1,7.5E-1,1.E0),.UNSPECIFIED.);
#87=B_SPLINE_CURVE_WITH_KNOTS('',3,(#79,#80,#81,#82,#83,#84,#85,#86),
.UNSPECIFIED.,.F.,.F.,(4,1,1,1,1,4),(0.E0,2.E-1,4.E-1,6.E-1,8.E-1,1.E0),
.UNSPECIFIED.);
#96=B_SPLINE_CURVE_WITH_KNOTS('',3,(#88,#89,#90,#91,#92,#93,#94,#95),
.UNSPECIFIED.,.F.,.F.,(4,1,1,1,1,4),(0.E0,2.E-1,4.E-1,6.E-1,8.E-1,1.E0),
.UNSPECIFIED.);
#108=B_SPLINE_CURVE_WITH_KNOTS('',3,(#101,#102,#103,#104,#105,#106,#107),
.UNSPECIFIED.,.F.,.F.,(4,1,1,1,4),(0.E0,2.5E-1,5.E-1,7.5E-1,1.E0),
.UNSPECIFIED.);
#116=B_SPLINE_CURVE_WITH_KNOTS('',3,(#109,#110,#111,#112,#113,#114,#115),
.UNSPECIFIED.,.F.,.F.,(4,1,1,1,4),(0.E0,2.5E-1,5.E-1,7.5E-1,1.E0),
.UNSPECIFIED.);
#125=B_SPLINE_CURVE_WITH_KNOTS('',3,(#117,#118,#119,#120,#121,#122,#123,#124),
.UNSPECIFIED.,.F.,.F.,(4,1,1,1,1,4),(0.E0,2.E-1,4.E-1,6.E-1,8.E-1,1.E0),
.UNSPECIFIED.);
#134=B_SPLINE_CURVE_WITH_KNOTS('',3,(#126,#127,#128,#129,#130,#131,#132,#133),
.UNSPECIFIED.,.F.,.F.,(4,1,1,1,1,4),(0.E0,2.E-1,4.E-1,6.E-1,8.E-1,1.E0),
.UNSPECIFIED.);
#146=B_SPLINE_CURVE_WITH_KNOTS('',3,(#139,#140,#141,#142,#143,#144,#145),
.UNSPECIFIED.,.F.,.F.,(4,1,1,1,4),(0.E0,2.5E-1,5.E-1,7.5E-1,1.E0),
.UNSPECIFIED.);
#154=B_SPLINE_CURVE_WITH_KNOTS('',3,(#147,#148,#149,#150,#151,#152,#153),
.UNSPECIFIED.,.F.,.F.,(4,1,1,1,4),(0.E0,2.5E-1,5.E-1,7.5E-1,1.E0),
.UNSPECIFIED.);
#163=B_SPLINE_CURVE_WITH_KNOTS('',3,(#155,#156,#157,#158,#159,#160,#161,#162),
.UNSPECIFIED.,.F.,.F.,(4,1,1,1,1,4),(0.E0,2.E-1,4.E-1,6.E-1,8.E-1,1.E0),
.UNSPECIFIED.);
#172=B_SPLINE_CURVE_WITH_KNOTS('',3,(#164,#165,#166,#167,#168,#169,#170,#171),
.UNSPECIFIED.,.F.,.F.,(4,1,1,1,1,4),(0.E0,2.E-1,4.E-1,6.E-1,8.E-1,1.E0),
.UNSPECIFIED.);
#184=B_SPLINE_CURVE_WITH_KNOTS('',3,(#177,#178,#179,#180,#181,#182,#183),
.UNSPECIFIED.,.F.,.F.,(4,1,1,1,4),(0.E0,2.5E-1,5.E-1,7.5E-1,1.E0),
.UNSPECIFIED.);
#192=B_SPLINE_CURVE_WITH_KNOTS('',3,(#185,#186,#187,#188,#189,#190,#191),
.UNSPECIFIED.,.F.,.F.,(4,1,1,1,4),(0.E0,2.5E-1,5.E-1,7.5E-1,1.E0),
.UNSPECIFIED.);
#200=B_SPLINE_CURVE_WITH_KNOTS('',3,(#193,#194,#195,#196,#197,#198,#199),
.UNSPECIFIED.,.F.,.F.,(4,1,1,1,4),(0.E0,2.5E-1,5.E-1,7.5E-1,1.E0),
.UNSPECIFIED.);
#209=B_SPLINE_CURVE_WITH_KNOTS('',3,(#201,#202,#203,#204,#205,#206,#207,#208),
.UNSPECIFIED.,.F.,.F.,(4,1,1,1,1,4),(0.E0,2.E-1,4.E-1,6.E-1,8.E-1,1.E0),
.UNSPECIFIED.);
#218=B_SPLINE_CURVE_WITH_KNOTS('',3,(#210,#211,#212,#213,#214,#215,#216,#217),
.UNSPECIFIED.,.F.,.F.,(4,1,1,1,1,4),(0.E0,2.E-1,4.E-1,6.E-1,8.E-1,1.E0),
.UNSPECIFIED.);
#230=B_SPLINE_CURVE_WITH_KNOTS('',3,(#223,#224,#225,#226,#227,#228,#229),
.UNSPECIFIED.,.F.,.F.,(4,1,1,1,4),(0.E0,2.5E-1,5.E-1,7.5E-1,1.E0),
.UNSPECIFIED.);
#239=CIRCLE('',#238,1.106483444712E1);
#248=CIRCLE('',#247,1.106483444712E1);
#261=CIRCLE('',#260,1.106483444712E1);
#270=CIRCLE('',#269,1.106483444712E1);
#279=CIRCLE('',#278,9.519615242271E0);
#284=CIRCLE('',#283,9.519615242271E0);
#292=B_SPLINE_CURVE_WITH_KNOTS('',3,(#285,#286,#287,#288,#289,#290,#291),
.UNSPECIFIED.,.F.,.F.,(4,1,1,1,4),(0.E0,2.5E-1,5.E-1,7.5E-1,1.E0),
.UNSPECIFIED.);
#301=B_SPLINE_CURVE_WITH_KNOTS('',3,(#293,#294,#295,#296,#297,#298,#299,#300),
.UNSPECIFIED.,.F.,.F.,(4,1,1,1,1,4),(0.E0,2.E-1,4.E-1,6.E-1,8.E-1,1.E0),
.UNSPECIFIED.);
#310=B_SPLINE_CURVE_WITH_KNOTS('',3,(#302,#303,#304,#305,#306,#307,#308,#309),
.UNSPECIFIED.,.F.,.F.,(4,1,1,1,1,4),(0.E0,2.E-1,4.E-1,6.E-1,8.E-1,1.E0),
.UNSPECIFIED.);
#322=B_SPLINE_CURVE_WITH_KNOTS('',3,(#315,#316,#317,#318,#319,#320,#321),
.UNSPECIFIED.,.F.,.F.,(4,1,1,1,4),(0.E0,2.5E-1,5.E-1,7.5E-1,1.E0),
.UNSPECIFIED.);
#327=CIRCLE('',#326,1.106483444712E1);
#332=CIRCLE('',#331,1.106483444712E1);
#345=CIRCLE('',#344,9.E0);
#354=CIRCLE('',#353,9.E0);
#359=CIRCLE('',#358,9.E0);
#364=CIRCLE('',#363,9.E0);
#369=CIRCLE('',#368,9.E0);
#378=CIRCLE('',#377,9.E0);
#460=EDGE_CURVE('',#410,#401,#40,.T.);
#462=EDGE_CURVE('',#408,#410,#5,.T.);
#464=EDGE_CURVE('',#407,#408,#10,.T.);
#466=EDGE_CURVE('',#404,#407,#35,.T.);
#468=EDGE_CURVE('',#402,#404,#15,.T.);
#470=EDGE_CURVE('',#401,#402,#20,.T.);
#474=EDGE_CURVE('',#437,#438,#25,.T.);
#476=EDGE_CURVE('',#438,#437,#30,.T.);
#487=EDGE_CURVE('',#428,#402,#49,.T.);
#489=EDGE_CURVE('',#401,#428,#310,.T.);
#500=EDGE_CURVE('',#424,#407,#125,.T.);
#502=EDGE_CURVE('',#404,#424,#96,.T.);
#512=EDGE_CURVE('',#397,#401,#301,.T.);
#514=EDGE_CURVE('',#410,#397,#218,.T.);
#526=EDGE_CURVE('',#432,#408,#163,.T.);
#528=EDGE_CURVE('',#407,#432,#134,.T.);
#539=EDGE_CURVE('',#430,#410,#209,.T.);
#541=EDGE_CURVE('',#408,#430,#172,.T.);
#552=EDGE_CURVE('',#402,#423,#58,.T.);
#554=EDGE_CURVE('',#423,#425,#62,.T.);
#556=EDGE_CURVE('',#415,#425,#70,.T.);
#558=EDGE_CURVE('',#415,#412,#243,.T.);
#560=EDGE_CURVE('',#429,#412,#78,.T.);
#562=EDGE_CURVE('',#428,#429,#314,.T.);
#573=EDGE_CURVE('',#423,#404,#87,.T.);
#586=EDGE_CURVE('',#424,#427,#100,.T.);
#588=EDGE_CURVE('',#426,#427,#108,.T.);
#590=EDGE_CURVE('',#426,#416,#252,.T.);
#592=EDGE_CURVE('',#425,#416,#116,.T.);
#605=EDGE_CURVE('',#432,#433,#138,.T.);
#607=EDGE_CURVE('',#419,#433,#146,.T.);
#609=EDGE_CURVE('',#419,#434,#256,.T.);
#611=EDGE_CURVE('',#427,#434,#154,.T.);
#624=EDGE_CURVE('',#430,#431,#176,.T.);
#626=EDGE_CURVE('',#422,#431,#184,.T.);
#628=EDGE_CURVE('',#422,#420,#265,.T.);
#630=EDGE_CURVE('',#433,#420,#192,.T.);
#641=EDGE_CURVE('',#393,#394,#274,.T.);
#643=EDGE_CURVE('',#431,#394,#200,.T.);
#648=EDGE_CURVE('',#397,#398,#222,.T.);
#650=EDGE_CURVE('',#393,#398,#230,.T.);
#660=EDGE_CURVE('',#389,#390,#234,.T.);
#662=EDGE_CURVE('',#389,#412,#239,.T.);
#665=EDGE_CURVE('',#415,#416,#248,.T.);
#668=EDGE_CURVE('',#434,#426,#332,.T.);
#671=EDGE_CURVE('',#419,#420,#261,.T.);
#674=EDGE_CURVE('',#422,#394,#270,.T.);
#677=EDGE_CURVE('',#390,#393,#327,.T.);
#681=EDGE_CURVE('',#445,#446,#279,.T.);
#683=EDGE_CURVE('',#446,#445,#284,.T.);
#694=EDGE_CURVE('',#398,#390,#292,.T.);
#700=EDGE_CURVE('',#389,#429,#322,.T.);
#777=EDGE_CURVE('',#446,#449,#340,.T.);
#779=EDGE_CURVE('',#449,#450,#364,.T.);
#781=EDGE_CURVE('',#450,#454,#345,.T.);
#783=EDGE_CURVE('',#445,#454,#336,.T.);
#795=EDGE_CURVE('',#454,#452,#359,.T.);
#797=EDGE_CURVE('',#452,#449,#369,.T.);
#809=EDGE_CURVE('',#450,#442,#349,.T.);
#811=EDGE_CURVE('',#442,#441,#354,.T.);
#813=EDGE_CURVE('',#452,#441,#373,.T.);
#827=EDGE_CURVE('',#441,#442,#378,.T.);
#839=EDGE_CURVE('',#438,#442,#386,.T.);
#842=EDGE_CURVE('',#437,#441,#382,.T.);
#861=(LENGTH_UNIT()NAMED_UNIT(*)SI_UNIT(.MILLI.,.METRE.));
#863=(NAMED_UNIT(*)PLANE_ANGLE_UNIT()SI_UNIT($,.RADIAN.));
#866=(NAMED_UNIT(*)SI_UNIT($,.STERADIAN.)SOLID_ANGLE_UNIT());
#869=MANIFOLD_SURFACE_SHAPE_REPRESENTATION('',(#860),#868);
#876=PRODUCT_DEFINITION('design','',#875,#872);
#877=PRODUCT_DEFINITION_SHAPE('','SHAPE FOR 10-855.',#876);
#878=SHAPE_DEFINITION_REPRESENTATION(#877,#869);
ENDSEC;
END-ISO-10303-21;
